<svg width="154" height="154" viewBox="0 0 154 154" fill="none" xmlns="http://www.w3.org/2000/svg">
<path id="Oval 151" fill-rule="evenodd" clip-rule="evenodd" d="M99.0425 121.085C99.0425 133.259 108.911 143.127 121.085 143.127C133.259 143.127 143.128 133.259 143.128 121.085C143.128 108.911 133.259 99.0423 121.085 99.0423H32.9149C20.7411 99.0423 10.8723 108.911 10.8723 121.085C10.8723 133.259 20.7411 143.127 32.9149 143.127C45.0886 143.127 54.9574 133.259 54.9574 121.161V32.9146C54.9574 20.7409 45.0886 10.8721 32.9149 10.8721C20.7411 10.8721 10.8723 20.7409 10.8723 32.9146C10.8723 45.0884 20.7411 54.9572 32.9149 54.9572H121.085C133.259 54.9572 143.128 45.0884 143.128 32.9146C143.128 20.7409 133.259 10.8721 121.085 10.8721C108.911 10.8721 99.0425 20.7409 99.0425 32.9146V121.085Z" stroke="white" stroke-width="20"/>
</svg>
